<svg id="visual" viewBox="0 0 900 600" width="900" height="600" xmlns="http://www.w3.org/2000/svg" xmlns:xlink="http://www.w3.org/1999/xlink" version="1.1"><path d="M0 474L21.5 458C43 442 86 410 128.8 400.2C171.7 390.3 214.3 402.7 257.2 422.7C300 442.7 343 470.3 385.8 474.8C428.7 479.3 471.3 460.7 514.2 447.3C557 434 600 426 642.8 433.2C685.7 440.3 728.3 462.7 771.2 465.2C814 467.7 857 450.3 878.5 441.7L900 433L900 601L878.5 601C857 601 814 601 771.2 601C728.3 601 685.7 601 642.8 601C600 601 557 601 514.2 601C471.3 601 428.7 601 385.8 601C343 601 300 601 257.2 601C214.3 601 171.7 601 128.8 601C86 601 43 601 21.5 601L0 601Z" fill="#fff" stroke-linecap="round" stroke-linejoin="miter"></path></svg>